<svg height="512pt" viewBox="-43 0 511 512" width="512pt" xmlns="http://www.w3.org/2000/svg"><path d="m139.167969 277.332031c-76.460938 0-138.667969-62.207031-138.667969-138.664062 0-76.460938 62.207031-138.667969 138.667969-138.667969 76.457031 0 138.664062 62.207031 138.664062 138.667969 0 76.457031-62.207031 138.664062-138.664062 138.664062zm0-245.332031c-58.816407 0-106.667969 47.851562-106.667969 106.667969 0 58.816406 47.851562 106.664062 106.667969 106.664062 58.816406 0 106.664062-47.847656 106.664062-106.664062 0-58.816407-47.847656-106.667969-106.664062-106.667969zm0 0"/><path d="m357.832031 512c-4.09375 0-8.191406-1.558594-11.304687-4.691406-6.25-6.253906-6.25-16.386719 0-22.636719l39.167968-39.167969c10.390626-10.390625 10.390626-27.304687 0-37.71875l-167.339843-167.335937c-6.25-6.25-6.25-16.386719 0-22.636719s16.382812-6.25 22.636719 0l167.335937 167.339844c22.871094 22.867187 22.871094 60.074218 0 82.964844l-39.1875 39.191406c-3.117187 3.132812-7.210937 4.691406-11.308594 4.691406zm0 0"/><path d="m272.5 426.667969c-4.097656 0-8.191406-1.558594-11.308594-4.695313-6.25-6.25-6.25-16.382812 0-22.632812l69.335938-69.335938c6.25-6.25 16.382812-6.25 22.632812 0 6.25 6.253906 6.25 16.386719 0 22.636719l-69.332031 69.332031c-3.136719 3.136719-7.230469 4.695313-11.328125 4.695313zm0 0"/></svg>