<?xml version="1.0" standalone="no"?>
<!DOCTYPE svg PUBLIC "-//W3C//DTD SVG 20010904//EN"
 "http://www.w3.org/TR/2001/REC-SVG-20010904/DTD/svg10.dtd">
<svg version="1.0" xmlns="http://www.w3.org/2000/svg"
 width="512.000000pt" height="512.000000pt" viewBox="0 0 512.000000 512.000000"
 preserveAspectRatio="xMidYMid meet">
<metadata>
Created by potrace 1.14, written by Peter Selinger 2001-2017
</metadata>
<g transform="translate(0.000000,512.000000) scale(0.100000,-0.100000)"
fill="#000000" stroke="none">
<path d="M2076 4433 c-45 -45 -134 -250 -222 -510 -25 -76 -51 -143 -58 -150
-10 -10 -145 -80 -226 -116 -149 -67 -380 -138 -547 -166 -35 -6 -75 -13 -90
-16 -69 -12 -201 -19 -348 -18 -159 1 -185 4 -383 38 -180 32 -206 12 -197
-145 4 -52 8 -97 10 -100 2 -3 6 -30 10 -60 28 -223 131 -592 232 -830 240
-565 570 -945 935 -1079 131 -48 177 -56 348 -55 165 1 177 3 336 49 18 6 31
-6 77 -67 170 -223 381 -374 650 -464 420 -142 848 -95 1203 131 512 326 954
1045 1178 1917 103 400 157 778 122 846 -26 50 -78 58 -216 32 -36 -7 -76 -14
-90 -16 -14 -2 -35 -6 -47 -9 -12 -3 -41 -7 -65 -11 -24 -3 -72 -9 -108 -14
-67 -9 -536 -6 -580 3 -14 3 -47 8 -75 11 -27 3 -59 8 -70 10 -11 2 -40 7 -65
11 -79 13 -92 16 -169 35 -260 63 -569 177 -746 274 -33 19 -82 46 -110 61
-97 53 -271 174 -368 257 -217 183 -266 206 -321 151z m545 -1237 c196 -62
337 -234 375 -460 4 -22 3 -37 -2 -34 -5 3 -219 65 -476 138 -258 73 -468 135
-468 139 0 10 83 94 126 128 54 42 128 79 195 97 64 17 183 13 250 -8z m-1401
-269 c0 -8 -9 -39 -19 -70 -35 -100 -105 -183 -193 -228 -55 -28 -87 -34 -183
-34 -68 0 -89 5 -145 31 -36 17 -90 53 -120 81 l-55 51 45 11 c25 6 79 20 120
31 41 11 118 31 170 45 52 14 151 40 220 59 142 39 160 41 160 23z m2846 -165
c66 -20 148 -68 195 -114 45 -43 119 -146 119 -165 0 -4 7 -21 15 -37 17 -32
49 -161 43 -175 -2 -5 -68 11 -148 35 -80 24 -154 46 -165 48 -18 4 -91 26
-440 130 -44 13 -91 27 -105 30 -55 13 -56 21 -16 71 68 83 198 166 288 185
50 10 169 6 214 -8z m-2455 -529 c1 -45 24 -210 39 -293 5 -25 6 -48 2 -51 -7
-6 -551 -160 -564 -159 -10 0 29 103 60 160 77 140 207 255 372 327 87 38 90
39 91 16z m757 -87 c277 -78 634 -178 727 -202 50 -13 155 -42 235 -64 80 -23
177 -50 215 -60 39 -10 120 -33 180 -50 61 -17 115 -32 122 -34 26 -5 24 -16
-11 -47 -169 -148 -369 -221 -606 -220 -63 0 -126 2 -140 5 -13 3 -42 8 -64
12 -62 9 -241 71 -320 111 -220 110 -395 294 -481 505 -24 60 -31 88 -19 88 3
0 76 -20 162 -44z"/>
</g>
</svg>
